<svg id="Layer_1" data-name="Layer 1" xmlns="http://www.w3.org/2000/svg" xmlns:xlink="http://www.w3.org/1999/xlink" viewBox="0 0 92.71 139.01"><defs><style>.cls-1{fill:url(#linear-gradient);}.cls-2{fill:#fff;}</style><linearGradient id="linear-gradient" x1="314.45" y1="224.47" x2="-66.68" y2="28.48" gradientUnits="userSpaceOnUse"><stop offset="0" stop-color="#08424d"/><stop offset="1" stop-color="#1d9cb3"/></linearGradient></defs><path class="cls-1" d="M100.22,53.36l-2.83-8.28,2.83-9-7.76-7.95L81.62,31l-8.54-3.3-4.6-9H56.65l-4.6,8.49-7,3.77L33,28.12l-8.22,7.54L28.06,46,25.27,53.4l-.5,104.3H45.28l.57-59L51.39,101l5.91,10.06h10l7.06-10.68L82,97.55l10.84,3.77L101,93.15,97.72,82.73,101,74.61l9.86-4.39V58.91ZM63.59,87.57c-13,0-23.53-10.08-23.53-22.5s10.54-22.5,23.53-22.5,23.54,10.07,23.54,22.5S76.59,87.57,63.59,87.57Z" transform="translate(-18.16 -18.69)"/><path class="cls-2" d="M93.61,53.36l-2.83-8.28,2.83-9-7.76-7.95L75,31l-8.54-3.3-4.6-9H50l-4.61,8.49-7,3.77L26.38,28.12l-8.22,7.54L21.45,46l-2.8,7.37-.49,104.3H38.67l.57-59L44.78,101l5.91,10.06h10l7.07-10.68,7.56-2.83,10.84,3.77,8.22-8.17L91.11,82.73l3.29-8.12,9.86-4.39V58.91ZM57,87.57c-13,0-23.53-10.08-23.53-22.5S44,42.57,57,42.57s23.54,10.07,23.54,22.5S70,87.57,57,87.57Z" transform="translate(-18.16 -18.69)"/></svg>