<svg id="Layer_1" data-name="Layer 1" xmlns="http://www.w3.org/2000/svg" xmlns:xlink="http://www.w3.org/1999/xlink" viewBox="0 0 284.76 143.44"><defs><style>.cls-1{fill:url(#linear-gradient);}.cls-2{fill:url(#linear-gradient-2);}.cls-3{fill:url(#linear-gradient-3);}.cls-4{fill:url(#linear-gradient-4);}.cls-5{fill:url(#linear-gradient-5);}.cls-6{fill:url(#linear-gradient-6);}.cls-7{fill:url(#linear-gradient-7);}.cls-8{fill:url(#linear-gradient-8);}.cls-9{fill:url(#linear-gradient-9);}.cls-10{fill:url(#linear-gradient-10);}.cls-11{fill:url(#linear-gradient-11);}.cls-12{fill:url(#linear-gradient-12);}.cls-13{fill:url(#linear-gradient-13);}.cls-14{fill:url(#linear-gradient-14);}.cls-15{fill:url(#linear-gradient-15);}.cls-16{fill:#fff;}</style><linearGradient id="linear-gradient" x1="524.56" y1="418.48" x2="143.43" y2="222.49" gradientUnits="userSpaceOnUse"><stop offset="0" stop-color="#08424d"/><stop offset="1" stop-color="#1d9cb3"/></linearGradient><linearGradient id="linear-gradient-2" x1="530.35" y1="407.22" x2="149.22" y2="211.23" xlink:href="#linear-gradient"/><linearGradient id="linear-gradient-3" x1="536.76" y1="394.74" x2="155.64" y2="198.75" xlink:href="#linear-gradient"/><linearGradient id="linear-gradient-4" x1="542.92" y1="382.77" x2="161.8" y2="186.78" xlink:href="#linear-gradient"/><linearGradient id="linear-gradient-5" x1="490.7" y1="484.32" x2="109.58" y2="288.33" xlink:href="#linear-gradient"/><linearGradient id="linear-gradient-6" x1="498.44" y1="469.27" x2="117.32" y2="273.27" xlink:href="#linear-gradient"/><linearGradient id="linear-gradient-7" x1="505.28" y1="455.97" x2="124.15" y2="259.98" xlink:href="#linear-gradient"/><linearGradient id="linear-gradient-8" x1="512.89" y1="441.17" x2="131.77" y2="245.17" xlink:href="#linear-gradient"/><linearGradient id="linear-gradient-9" x1="515.71" y1="435.68" x2="134.59" y2="239.68" xlink:href="#linear-gradient"/><linearGradient id="linear-gradient-10" x1="523.75" y1="420.06" x2="142.62" y2="224.06" xlink:href="#linear-gradient"/><linearGradient id="linear-gradient-11" x1="524.69" y1="418.22" x2="143.57" y2="222.23" xlink:href="#linear-gradient"/><linearGradient id="linear-gradient-12" x1="499.43" y1="464.51" x2="118.31" y2="268.52" xlink:href="#linear-gradient"/><linearGradient id="linear-gradient-13" x1="513.3" y1="440.37" x2="132.18" y2="244.37" xlink:href="#linear-gradient"/><linearGradient id="linear-gradient-14" x1="516.96" y1="433.25" x2="135.84" y2="237.25" xlink:href="#linear-gradient"/><linearGradient id="linear-gradient-15" x1="484.16" y1="497.05" x2="103.03" y2="301.05" xlink:href="#linear-gradient"/></defs><path class="cls-1" d="M351.56,343.92V331.14h-3.89v-8.88h3.89v-8H363.1v8h7.66v8.88H363.1v10.63c0,2.21,1,3.14,3.17,3.14a10.51,10.51,0,0,0,4.37-1.05v8.66a17.14,17.14,0,0,1-8,1.8C355.69,354.32,351.56,351.41,351.56,343.92Z" transform="translate(-203.14 -258.74)"/><path class="cls-2" d="M375.5,342.5V321.94h11.55v17c0,3.43,1.88,5.28,4.68,5.28s4.8-1.85,4.8-5.28v-17h11.54v31.42H396.53v-4.29a12.27,12.27,0,0,1-9.85,5C379.69,354.06,375.5,349.65,375.5,342.5Z" transform="translate(-203.14 -258.74)"/><path class="cls-3" d="M414.27,321.94h11.54v6.33c1.89-4.3,4.93-7.08,10.39-6.85V333h-1c-6,0-9.42,3.32-9.42,10.58v9.75H414.27Z" transform="translate(-203.14 -258.74)"/><path class="cls-4" d="M438.33,337.8v-.12a16.11,16.11,0,0,1,16.59-16.44c11.36,0,16.59,8,16.59,17.2,0,.69,0,1.51-.06,2.26h-22c.91,3.43,3.52,5.17,7.11,5.17,2.73,0,4.92-1,7.29-3.19l6.38,5.05c-3.16,3.83-7.72,6.39-14.28,6.39C445.62,354.12,438.33,347.56,438.33,337.8Zm22.36-2.73c-.42-3.49-2.55-5.69-5.71-5.69s-5.11,2.26-5.71,5.69Z" transform="translate(-203.14 -258.74)"/><path class="cls-5" d="M287.39,393.09V393c0-6.08,4.83-9.24,12.05-9.24a24.55,24.55,0,0,1,7.4,1.15v-.49c0-3-2-4.79-6.14-4.79a22.63,22.63,0,0,0-8.48,1.63L290,374a32.07,32.07,0,0,1,12.45-2.28c5.52,0,9.27,1.24,11.72,3.58,2.33,2.18,3.3,5.22,3.3,9.35v16.91h-10.7v-3a11.83,11.83,0,0,1-9,3.69C291.88,402.17,287.39,399,287.39,393.09ZM307,390.87v-1.36a11.64,11.64,0,0,0-4.21-.76c-3.12,0-4.95,1.46-4.95,3.64v.11c0,2,1.6,3.2,3.82,3.2C304.74,395.7,307,393.8,307,390.87Z" transform="translate(-203.14 -258.74)"/><path class="cls-6" d="M321.68,386.89v-.11c0-8.31,6.77-15.33,16.49-15.33,6.32,0,10.52,2.61,13.14,6.58L344,383.25a6.68,6.68,0,0,0-5.74-3.1c-3.47,0-6,2.94-6,6.53v.1c0,3.81,2.51,6.69,6.14,6.69,2.56,0,4.21-1.14,5.92-3l7.22,5c-2.84,4-6.94,6.74-13.7,6.74C328.5,402.17,321.68,395.21,321.68,386.89Z" transform="translate(-203.14 -258.74)"/><path class="cls-7" d="M355.29,361.78H366.1v14.29a11.47,11.47,0,0,1,9.21-4.67c6.54,0,10.46,4.13,10.46,10.82v19.24H375V385.53c0-3.2-1.76-4.94-4.32-4.94s-4.55,1.74-4.55,4.94v15.93H355.29Z" transform="translate(-203.14 -258.74)"/><path class="cls-8" d="M391.35,361.78h11.26v7.61H391.35Zm.23,10.27h10.8v29.41h-10.8Z" transform="translate(-203.14 -258.74)"/><path class="cls-9" d="M408.41,372.05h10.81v4.13c2-2.44,4.83-4.78,9.21-4.78,6.54,0,10.46,4.13,10.46,10.82v19.24h-10.8V385.53c0-3.2-1.77-4.94-4.32-4.94s-4.55,1.74-4.55,4.94v15.93H408.41Z" transform="translate(-203.14 -258.74)"/><path class="cls-10" d="M443.21,386.89v-.11a15.08,15.08,0,0,1,15.53-15.38c10.63,0,15.53,7.45,15.53,16.09,0,.65,0,1.41-.06,2.12H453.62c.85,3.21,3.3,4.84,6.65,4.84a9.46,9.46,0,0,0,6.83-3l6,4.73c-2.95,3.59-7.22,6-13.36,6C450,402.17,443.21,396,443.21,386.89Zm20.93-2.55c-.4-3.27-2.39-5.33-5.34-5.33s-4.78,2.12-5.35,5.33Z" transform="translate(-203.14 -258.74)"/><path class="cls-11" d="M482.57,391.52a5.06,5.06,0,0,1,5.33,5v.12a5.34,5.34,0,0,1-10.66,0v-.12A5.06,5.06,0,0,1,482.57,391.52Z" transform="translate(-203.14 -258.74)"/><path class="cls-12" d="M285.21,293.4l-2.83-8.27,2.83-9-7.76-7.95L266.6,271l-8.54-3.3-4.6-8.95H241.63l-4.6,8.48-7,3.77L218,268.16l-8.21,7.54L213,286.07l-2.79,7.37-.49,104.3h20.5l.57-59.05,5.54,2.36,5.92,10.05h10l7.07-10.68,7.55-2.83,10.85,3.77,8.21-8.17-3.28-10.42,3.28-8.11,9.86-4.4V299Zm-36.63,34.21c-13,0-23.53-10.07-23.53-22.5s10.53-22.5,23.53-22.5,23.53,10.08,23.53,22.5S261.58,327.61,248.58,327.61Z" transform="translate(-203.14 -258.74)"/><path class="cls-13" d="M296.75,311h12v8.13h-12Zm.25,11h11.54v31.42H297Z" transform="translate(-203.14 -258.74)"/><path class="cls-14" d="M313.65,337.8v-.12c0-8.89,7.23-16.38,17.62-16.38,6.74,0,11.24,2.79,14,7l-7.83,5.58a7.16,7.16,0,0,0-6.14-3.31c-3.71,0-6.44,3.13-6.44,7v.12c0,4.07,2.67,7.15,6.56,7.15,2.73,0,4.5-1.22,6.32-3.26l7.71,5.35c-3,4.29-7.41,7.2-14.64,7.2C320.94,354.12,313.65,346.68,313.65,337.8Z" transform="translate(-203.14 -258.74)"/><path class="cls-15" d="M240.13,363.41h11.66l9.49,14.73,9.5-14.73h11.66v38h-11V379.61L261.28,394.5h-.23l-10.12-14.78v21.74h-10.8Z" transform="translate(-203.14 -258.74)"/><path class="cls-16" d="M347.88,340.33V327.55H344v-8.88h3.89v-8h11.54v8h7.66v8.88h-7.66v10.63c0,2.21,1,3.14,3.16,3.14a10.52,10.52,0,0,0,4.38-1.05v8.66a17.14,17.14,0,0,1-8,1.8C352,350.73,347.88,347.83,347.88,340.33Z" transform="translate(-203.14 -258.74)"/><path class="cls-16" d="M371.82,338.91V318.35h11.54v17c0,3.43,1.89,5.29,4.68,5.29s4.8-1.86,4.8-5.29v-17h11.55v31.43H392.84v-4.3a12.24,12.24,0,0,1-9.84,5C376,350.47,371.82,346.06,371.82,338.91Z" transform="translate(-203.14 -258.74)"/><path class="cls-16" d="M410.59,318.35h11.54v6.33c1.88-4.29,4.92-7.08,10.39-6.85v11.62h-1c-6,0-9.42,3.31-9.42,10.57v9.76H410.59Z" transform="translate(-203.14 -258.74)"/><path class="cls-16" d="M434.65,334.21v-.12a16.1,16.1,0,0,1,16.59-16.43c11.36,0,16.58,7.95,16.58,17.19,0,.7,0,1.51-.06,2.26h-22c.91,3.43,3.52,5.17,7.11,5.17,2.73,0,4.92-1,7.29-3.19l6.38,5.05c-3.16,3.84-7.72,6.39-14.28,6.39C441.94,350.53,434.65,344,434.65,334.21ZM457,331.48c-.42-3.49-2.55-5.69-5.71-5.69s-5.11,2.26-5.71,5.69Z" transform="translate(-203.14 -258.74)"/><path class="cls-16" d="M283.71,389.51v-.11c0-6.09,4.83-9.24,12.05-9.24a24.58,24.58,0,0,1,7.4,1.14v-.49c0-3.05-2-4.79-6.14-4.79a22.59,22.59,0,0,0-8.48,1.63l-2.22-7.28a32.16,32.16,0,0,1,12.46-2.28c5.52,0,9.27,1.25,11.71,3.59,2.34,2.17,3.3,5.21,3.3,9.35v16.9H303.1v-3a11.85,11.85,0,0,1-9,3.7C288.2,398.59,283.71,395.38,283.71,389.51Zm19.56-2.23v-1.36a11.69,11.69,0,0,0-4.21-.76c-3.12,0-4.95,1.47-4.95,3.64v.11c0,2,1.6,3.21,3.81,3.21C301.05,392.12,303.27,390.21,303.27,387.28Z" transform="translate(-203.14 -258.74)"/><path class="cls-16" d="M318,383.3v-.11c0-8.31,6.77-15.33,16.49-15.33,6.31,0,10.52,2.61,13.14,6.58l-7.34,5.22a6.7,6.7,0,0,0-5.74-3.1c-3.47,0-6,2.94-6,6.53v.1c0,3.81,2.5,6.69,6.14,6.69,2.56,0,4.21-1.14,5.92-3l7.22,5c-2.84,4-6.94,6.74-13.71,6.74C324.82,398.58,318,391.62,318,383.3Z" transform="translate(-203.14 -258.74)"/><path class="cls-16" d="M351.61,358.19h10.8v14.3a11.48,11.48,0,0,1,9.22-4.68c6.54,0,10.46,4.13,10.46,10.82v19.24h-10.8V382c0-3.21-1.77-4.95-4.33-4.95s-4.55,1.74-4.55,4.95v15.92h-10.8Z" transform="translate(-203.14 -258.74)"/><path class="cls-16" d="M387.67,358.19h11.26v7.61H387.67Zm.23,10.27h10.8v29.41H387.9Z" transform="translate(-203.14 -258.74)"/><path class="cls-16" d="M404.73,368.46h10.8v4.13c2-2.44,4.84-4.78,9.22-4.78,6.54,0,10.46,4.13,10.46,10.82v19.24H424.4V382c0-3.21-1.76-4.95-4.32-4.95s-4.55,1.74-4.55,4.95v15.92h-10.8Z" transform="translate(-203.14 -258.74)"/><path class="cls-16" d="M439.53,383.3v-.11a15.08,15.08,0,0,1,15.53-15.38c10.63,0,15.52,7.45,15.52,16.09,0,.65,0,1.42-.06,2.12H449.94c.85,3.21,3.3,4.84,6.65,4.84a9.47,9.47,0,0,0,6.83-3l6,4.73c-3,3.59-7.22,6-13.37,6C446.35,398.58,439.53,392.44,439.53,383.3Zm20.93-2.55c-.4-3.26-2.39-5.33-5.35-5.33s-4.78,2.12-5.34,5.33Z" transform="translate(-203.14 -258.74)"/><path class="cls-16" d="M478.89,387.93a5.06,5.06,0,0,1,5.33,5V393a5.35,5.35,0,0,1-10.67,0v-.11A5.06,5.06,0,0,1,478.89,387.93Z" transform="translate(-203.14 -258.74)"/><path class="cls-16" d="M278.6,293.4l-2.83-8.27,2.83-9-7.76-7.95L260,271l-8.54-3.3-4.6-8.95H235l-4.6,8.48-7,3.77-12.1-2.83-8.22,7.54,3.29,10.37-2.79,7.37-.5,104.3h20.51l.57-59.05,5.54,2.36,5.92,10.05h10l7.06-10.68,7.56-2.83,10.85,3.77,8.21-8.17-3.28-10.42,3.28-8.11,9.86-4.4V299ZM242,327.61c-13,0-23.54-10.07-23.54-22.5S229,282.61,242,282.61s23.53,10.08,23.53,22.5S255,327.61,242,327.61Z" transform="translate(-203.14 -258.74)"/><path class="cls-16" d="M293.07,307.38h12v8.13h-12Zm.25,11h11.54v31.43H293.32Z" transform="translate(-203.14 -258.74)"/><path class="cls-16" d="M310,334.21v-.12c0-8.88,7.23-16.37,17.62-16.37,6.75,0,11.24,2.78,14,7l-7.84,5.58a7.16,7.16,0,0,0-6.14-3.31c-3.7,0-6.43,3.13-6.43,7v.11c0,4.07,2.67,7.15,6.56,7.15,2.73,0,4.49-1.22,6.32-3.25l7.71,5.34c-3,4.3-7.41,7.2-14.64,7.2C317.25,350.53,310,343.1,310,334.21Z" transform="translate(-203.14 -258.74)"/><path class="cls-16" d="M236.44,359.82H248.1l9.5,14.73,9.5-14.73h11.66v38.05h-11V376l-10.18,14.9h-.23l-10.12-14.79v21.74H236.44Z" transform="translate(-203.14 -258.74)"/></svg>