<?xml version="1.0" encoding="utf-8"?>
<!-- Generator: Adobe Illustrator 24.0.1, SVG Export Plug-In . SVG Version: 6.00 Build 0)  -->
<svg version="1.1" id="Capa_1" xmlns="http://www.w3.org/2000/svg" xmlns:xlink="http://www.w3.org/1999/xlink" x="0px" y="0px"
	 viewBox="0 0 512 512" style="enable-background:new 0 0 512 512;" xml:space="preserve">
<style type="text/css">
	.st0{fill:#FFFFFF;}
</style>
<g>
	<g>
		<g>
			<path class="st0" d="M437,75C388.7,26.6,324.4,0,256,0S123.3,26.6,75,75C26.6,123.3,0,187.6,0,256c0,68.4,26.6,132.7,75,181
				c48.4,48.4,112.6,75,181,75s132.7-26.6,181-75c48.4-48.4,75-112.6,75-181S485.4,123.3,437,75z M415.8,415.8
				C373.1,458.5,316.4,482,256,482s-117.1-23.5-159.8-66.2C53.5,373.1,30,316.4,30,256S53.5,138.9,96.2,96.2
				C138.9,53.5,195.6,30,256,30s117.1,23.5,159.8,66.2C503.9,184.3,503.9,327.7,415.8,415.8z"/>
		</g>
	</g>
	<g>
		<g>
			<path class="st0" d="M368.9,347.6L277.2,256l91.6-91.6c5.9-5.9,5.9-15.4,0-21.2c-5.9-5.9-15.4-5.9-21.2,0L256,234.8l-91.6-91.6
				c-5.9-5.9-15.4-5.9-21.2,0s-5.9,15.4,0,21.2l91.6,91.6l-91.6,91.6c-5.9,5.9-5.9,15.4,0,21.2c2.9,2.9,6.8,4.4,10.6,4.4
				c3.8,0,7.7-1.5,10.6-4.4l91.6-91.6l91.6,91.6c2.9,2.9,6.8,4.4,10.6,4.4s7.7-1.5,10.6-4.4C374.7,363,374.7,353.5,368.9,347.6z"/>
		</g>
	</g>
</g>
</svg>
