<svg id="Capa_1" data-name="Capa 1" xmlns="http://www.w3.org/2000/svg" viewBox="0 0 448.08 448.08"><defs><style>.cls-1{fill:#fff;}.cls-2{fill:none;}</style></defs><path class="cls-1" d="M343.06,1.67l-.23-.1a15.57,15.57,0,0,0-16.31,1.71l-.42.31L319.36,9l-135,107.59.14.14-14.22,11.37H96a32.06,32.06,0,0,0-7.38.87l-.28.07-1,.27-.38.11c-.35.1-.69.21-1,.33l-.27.09a32.14,32.14,0,0,0-21.5,27.37c0,.08,0,.16,0,.24,0,.39-.06.77-.08,1.16s0,.9,0,1.35v.14h0v128h0v.14c0,.45,0,.9,0,1.35s0,.77.08,1.15c0,.08,0,.16,0,.24a32.16,32.16,0,0,0,21.5,27.38l.27.09,1,.33.38.11,1,.27.28.06a31.52,31.52,0,0,0,7.38.88h74.24L326.1,444.56a16.32,16.32,0,0,0,9.92,3.52,18.92,18.92,0,0,0,7-1.6,16,16,0,0,0,9-14.4v-416h0A16,16,0,0,0,343.06,1.67Z"/><rect class="cls-2" y="0.07" width="448.08" height="448.08"/></svg>