<svg id="Capa_1" data-name="Capa 1" xmlns="http://www.w3.org/2000/svg" viewBox="0 0 448.08 448.08"><defs><style>.cls-1{fill:#fff;}</style></defs><path class="cls-1" d="M352,16.08a16,16,0,0,0-9-14.4,15.58,15.58,0,0,0-17,1.92l-141.76,113L352,284.23Z"/><path class="cls-1" d="M443.35,420.75l-416-416A16,16,0,0,0,4.72,27.37L105.4,128.08H96a32.52,32.52,0,0,0-32,32v128a32.09,32.09,0,0,0,32,32h74.24L326.1,444.56a16.32,16.32,0,0,0,9.92,3.52,18.92,18.92,0,0,0,7-1.6,16,16,0,0,0,9-14.4V374.7l68.67,68.67a16,16,0,1,0,22.66-22.62Z"/></svg>